/* XPM */
static char *ezgif_com_gif_maker__5_1672423722[] = {
/* columns rows colors chars-per-pixel */
"115 115 92 1 ",
"  c #1E2726",
". c #222C2B",
"X c #24302F",
"o c #252F30",
"O c #263131",
"+ c #2B3433",
"@ c #2D3936",
"# c #2D3738",
"$ c #2E3B3A",
"% c #313735",
"& c #323836",
"* c #323D3B",
"= c #34413E",
"- c #38413E",
"; c #364342",
": c #3A4543",
"> c #374A46",
", c #3C4946",
"< c #3D4748",
"1 c #374E48",
"2 c #3D4C49",
"3 c #3D524D",
"4 c #3E5954",
"5 c #404A47",
"6 c #424D4B",
"7 c #494F4E",
"8 c #44514E",
"9 c #4B534E",
"0 c #455452",
"q c #4A5552",
"w c #475A55",
"e c #4C5A55",
"r c #475A58",
"t c #4D5D5A",
"y c #525653",
"u c #595554",
"i c #545A56",
"p c #595957",
"a c #555C5A",
"s c #595E5C",
"d c #605E5E",
"f c #4D625D",
"g c #536057",
"h c #55615D",
"j c #5B615E",
"k c #61625F",
"l c #5C5E60",
"z c #615F61",
"x c #4F6462",
"c c #546562",
"v c #5D6462",
"b c #556A64",
"n c #5E6965",
"m c #556A68",
"M c #5D6D6A",
"N c #54716C",
"B c #5D726C",
"V c #5E7471",
"C c #5E7873",
"Z c #616664",
"A c #616967",
"S c #636768",
"D c #686669",
"F c #636D6A",
"G c #696E6D",
"H c #65716D",
"J c #68726E",
"K c #667571",
"L c #697572",
"P c #657974",
"I c #6A7976",
"U c #647C79",
"Y c #6D7D79",
"T c #717575",
"R c #727876",
"E c #717E7B",
"W c #678178",
"Q c #6D827C",
"! c #71817E",
"~ c #737E80",
"^ c #6E8581",
"/ c #6F8984",
"( c #758582",
") c #7A8684",
"_ c #748A85",
"` c #798986",
"' c #738F8A",
"] c #7B8C8A",
"[ c #75908B",
"{ c #7A928B",
"} c #7C9790",
"| c #828E8C",
/* pixels */
"www955-*eieq2,268---36--X@=---5,,0hcbHBhhhgggahvw80ehBHHhwf8Akggttacnhq2wghccthhcchhnbbjgw99ehHIgfgfBWJHgggMHHcwce0",
"bbnjjppgnnnnjhhjhhjnhhgge999eeie8ghghMhfjjhhhcvnhhghjnHH,0bwjignaalcvhaqahhhssahbhhbbnnNnhghhnHHBjhBBWJHBbnPQEHnHf2",
"BBHFFFFJFHHHHHPIHHJJKHFFJFnjjnjjgvnhhjnhjAAFnvAAAAnnkFHH=tQeiignltlpasvvsaaaaaaahhjhjnFFnnBnnnnnHnBBHHFFLHKL!!YK!h;",
"PHBnkFHGnHHHHHJRHHHHHHFBLHFjnjnjjnjjjAAjAkFAAZAAAAFHFFHT6MQfpkhgutyqeyasvsiiapsaajjjjjkGBFFFHnHMBBHHBHHJWHIWYYYI(c=",
"PBbnHJFFFBFHHJJIHHFHJJHnAAFkjjhjsjjjjkAjnAAAAAADnHFFAFHJeBQwydp9iyuuyyipZpayappaajjjjjFJHHHHHHHHFHJLLLLWLLYY!!YIQh;",
"BbnjJJHFFHFHHHLJHHnHPPHnjAFFnnnFjkAnAAZjjnAFAAAAnAHFFFHH8C}gqpjgaitaaaiilsaiapsaajnjnAAFHHFFFHHHHHKHJHLLKKIIY!IIQh,",
"ffnFGGGHFBFFHHHJHMFnAFHFFFFAFFnAAAMFAAAAnFFFFFHAHHMFHHHH2P}fiuphsaiaaspassssaallgjjnAFFAFnnFFnFnFFFFHGHHKKKLYIYKQg=",
"fbHKFkkJFFFHHJLIFHHFAFHJHAAAAFnjAnjjnnAAFHHHFHHJHBMHHWHP0N'gpuy9siqqssgiiscsaaschjjnFFFkhjBHHHHHHFFHJWLLUKKIY(II!f=",
"BBHAAGHAnFHHHHHHFHHHknkAFFFFAZvvjnjnnnvnnAAAFAAFFFFFFJJJ>c/fipyyigpgpppjssssaapssjjAAAZjZZAHHJHJnBbnMFBFHHVKIIYY!g=",
"bBHFDGJFKHJLJWRWHHFFFFAAAFAAAnnvnvnjvvnvAAFFAFFFFFFGFGFJ>b^wyyieiigpaagpcvvvsvvZvAADADAAZZDAHHJJHHHHHJPJKIIII~Y~{h=",
"fBHGFFHHHHHJJLJLLJFFHFFAAAZAZnvnnjjnvnvnAAAFFAAFFFFFFJFJ<m^tipiyiippaigjssvsljvvjZZAZZZADAnnAHLLWJJPIWIIIII~YE~^!h=",
"BbFFDFFAnnnFFFFGIHFFFFFknnnnZnnvjnjnnvnnAAFFAFAFFGFFFFJG3M_tpppgyiigipjjaasssssvjjjssjjjAAjnAFJPIHHJPLIIIIIIIYYI!g=",
"WHbkAFFAnFkFFFFFHPJJAADAvnnvZvnnnjvnvnnvnAFFAFAFFFFFJFJJ8b_eipsaypippapsssvsjjvnDjjjjjjZjjjnnFHHHHHBKLKKLUIIYIIY!h,",
"{WnjAGFknnFFAFFFMHJJHAADvvnnnnvnjnhnjnvnnAAFAAAFFFDGFFJJ>bWwippiijgpapgsssssssjvjnjjjvZZjjjAAFFFHKHHKKLKIIIIIYYY!h6",
"!WnhAFnAkAkFkAkAFFHHHASSnnnZnnnvnjnnnnvvAAAFFAFFFFAFFJFJ;fQwiiiigppjpgasaslsaassjjasjjjjjjnAFFHFHHHHKKLLLIIIYYYE!h,",
"!WnhjjjnAAFkGAkFnnDHJHFvnAnZnnnvjnjnvnnnnAAFAFAFFFFFGFJK$fWwipiijjjgjpiavvvvlsvZjasjjjjvAAvAMFHPWHHBKLKHKUIIIIYY!c2",
"!WnnkAkgAAnAAFJJjnnFGGFFnnnnZnvvnjnjnjjjjFFAAFHFFFFFGHJJ5wBwsuuilsiaslssvvlvvvZvsjsvjjZjknAAFHHWHHHHHWHHKIIK~III~l2",
"WWnnnnnknknAAAnnnnnnnAFGAAZAAAnvAnnnnnFAkFHAkFFkFFFFFFGJ6ePwpuyisassaasssssssspsjsjjjjjjjknAnFFJWHHHHWWJKIK~IIP~(x<",
"bbnnAnFnkFFJFAkjnnkgjnFHFAAAFFAnAAAFFAAFFHHAFFFFFFFFFJFJqcUwiuyiialssahvsssssssasssjsjjjknnnnnnHWWHHHJHWIKIIIIII~c:",
"BBBFFFFHFFJJJFnnFnjnjknFAAFFFFAAFAAAFAkFHHFFFnFFFFDFFGJJemQtpuyieeasslhvvlvlvjjjjvjjjvvjnkAnnFHHLLLHHHJLKKLII~II~t*",
"WWHFHHFFFFJJJHnnFFnknnnnAAAFFFAnAAAFFFFFHHHGFkFFFFFFGFJJfBQfauiiiiilsvvlvvvvvvjnvvvvvvAvnkFFnFHJLLLRWLJLUJLIIIIY(t*",
"WWBFGFHnFFGGFAnkjjFnFnnAAAAFFFFAAFFAFFFGHGGJHFFFFFFFFJFJeC/gaiigsaaaZZvsvvcvvvnjvZZZkAZAFFFFFHJLJLWWWJWHKLIIIIIIEa*",
"WBHFHHFFFFFFFFAAnnFnnAFFFFFFLGFFFFFFGGGJGFHLJFnFFFFFGFJJwN'fhppgssssjZZvnvvnnbvnvZvZAZAAAFFFFHHLWLLLLRLJULIIYYUI~s;",
"bWWWHHHHJFJFFHJJFFknAnFGFFFGGLHFGFFHJJJJFFJLJFFFFFFFFJGJwN'fjpagssvvssvFnnnnnnnnvvZvkAkAkkFFGHLRWLHJW!WWKIIIIIYLYa*",
"WHBHRRJnHWnHJHFnFHFFFFFFWHHHLKKKHHKIIIKHHKHHHFFFFFFFFJJJ5fUejduiqlalllsvZAZjjsjZsZvvZZZZFFHHHHLWRLLLLYYYIIIYYYYY(c:",
"WBBHTWJFHHnWJGWnHHHHJJJJBnHHLKVFPPIILKKKPHHHFFFFDFFFFGFF<fUwpiyylpapptlljkAAjjjjsvvZZZZZjFFHHHLLWRIWLYYYIIIIIILY(a;",
"WWHFJJJWHHHWJWJJHLHJJJJWQWWQEYYYIIIIUKKBPHHHFFFFAAFFFFGJ,b^eyuuylyalllslsjAADnjjZZvsZZvZkHFHFHWRQIIPIIIIYYYIYYIYQl:",
"BHHHJGJJWJHHWJWWHHLLJJJJJHHIYULLYIIIILLLHHBFHFFFAFAFFJFJ5M_e9ppiyayaallsjjAADAAjZsZZZZSZFGFHHKIW!R!IYIYIY~~YEEYE(v2",
"bBHHHHJWWJJWRJJJHHJJLLJJPJHIIPLLIIIIYIIIHHFFHHFFFAFHFFJF8B!wuuuypapasssjjvZZZDAjZZZAZADAGGHHJII!!!!!!!Y!Q!~Y^EE~)n<",
"BnHJJHHJWWRRWWWJHWWLLWTW!IY!(EYYUIIIYYIIPHBFHJGFFAFFGFJF,bQwyuyiyalasssljjjjZAAZZZZASDAAHHHJIRWIQRYYYIYYYYYYIYYY(l;",
"BBHHJGJJGWWW!RJJHWW!WLWRPHHIIIKILIIYYIIKPFHAHJFFFFFHGJFJ,fWepuyituasssssjjjjZZZZkvZZkAAAHHHJRWRIHHIKKKKKKKKLYLYIYt=",
"WHBHJWJWJJR!!!WGHWW!WRW!RIIQ!YIYLIYYYIKKPHAAHJJFGFFJJJLJ2fPgkuypyuappsssjjsZZAvjvjZjnAADkFFJIRLJPHPLIIILKHKKLYYUIq#",
"mVLVGLLKKLPY(YYLYYYYEEYI(Y(EYYYY~~YYLKKKHBnHHHHFFHnFFGGF5gQgappqyiiiaasssssvjAkjjvvnvnvnAAJLJJJLJGFFLLJJFHJIIJHMJ8+",
"tMMSGLVKKLIYYYYYKKKYYQ((Y(Y((QQY^~YYUKKKHHBnFFFnAknAFFFF*eYtipseyaaaslssvslvZAAvvvvnnAnADJJJJHFHJFAFJJJFnHHHJHFFLq&",
"rmMSLGHKKKLYYEYIKPKPQ((((((((```^(^YYYIIIIHJHHFkFAAFFJJJ*rYtppsiaaaascsvsvvvZDZZnnnAAAAAHHHHAAAAGFFFFFFFFFFHHHFALq@",
"tmVSKTGUKKKYY~(E~YYYY~((((((````__^E~EYYRLPPHHFGFFFFJLJJ;eQcsppgaasslsvsvsvnAAAZnnvAAAAFAHAAAAHFFFFFFFkFFnFnFFFFG6@",
"tMHHLLGLKKLUEEEY^^EYY(((YE((!(!!(^YYYIIKHPHHHHFFFAHHJJHH;eWhsipaaaaasjjjsvvvZFZvnvvnAAAFFADnnAAAkFFGFAAFFnFkAAAAL7+",
"xVVFKGSVKKLYYQYYY(~YY!(`(_((((!!(^YYYYLLHHHHFFFFFjjFFGFH*3BgappgaaaajjjjvslZZSAkAAnnnAAFJHAAnAnnFAFFGGFFnFFHFDAAG7O",
"cVKSGKHKKKIY~YYYYYYY~^(`((((`(((]^YY~YYLPPIHFAFFjjFnFFkj$<bespjgasssjjjjvvvZFSSZAAnnADHHHAAAAAAjAAAFHJFFkFFFFGADF7+",
"cKKKTLVIKKIYYYYLYYYQYY(((EY(!!!Q(^UIYYKKHHHHAnvvFnAFFAnj*<MekdkgsssjjvZkvvZZFGDAAAAAAFFHAAnAFAAAnnjAJJFAGFFGHHAALq#",
"VKYUGUJLUIIY(~YIYY^Y(^((!(!(!!!((EYI~TITVGJHFDvvZAZZnDAA+,fhhdsasjjjjvZZjnjFFFFAnnMFHHHGkAAkZZZZjkAAFHHPFFHHFHFHH0#",
"cmHFGGJUKKKIYYIKYYYYY~(`!!!!!!!!((YYIITLKKJHFAvvjjjvjjjj+,fhjkvhjjvZZZFABnHHPPHHHBFHJHHFFkAAZAZAjAAAFFJLLLHLLHIJYa;",
"tbMFHGJKKKKYYYIIYYYYYE(`!!!!(!!!((YYI~TIJKJHFAZvjjjjjjjj%6hbkDDnZZZADDAAHHFHJLJHHPHPJJHnAkAkZZZZjjAAFHJLLLKLKHLHYl;",
"xbKKGLKFILLI~(EYYYYYY((((`((_((((((YTIIILLJHFZvvjZjjjjjj%6bnZAAjZjZZAAAAnnFHJLHHPHHHHHFFAAAnvZZZnAAAAFJPFFFFHFHHIt*",
"rnSVGHVSLKUYYEYYY(_YY(((!!(!!!!!((!YIILTGKJJFnZjZvjvjjjj&0bMvZZjjZZvAAAknnBHHJHFFHFHHFFkAkvZvZZZjnnFFFHJFKFKHHHHIe*",
"rmVLI~I~LIIE!Y(E~((YQ(((!!!!!!!!(Y(YEIITLKJJFAvvjjjsjssa&0bnjdvjZZZZkAAAHnnHJJHHBnBHHHFFAvZZjZZZjkjjAFHIHKKFHHHHKq#",
"cmLTTT~IYYYYE!E(Y``(Y((IYYYY!!RWYY^~EIILLKGJFAnvjjsssaga%8bnvdjvAAZAAAAABnFHJJHHHnBnFFFFZvZvZZZZjAnFnHHJFFFFFHFFH0+",
"cmVHLJJVKYYLIYYYY(((Y(YYQRQ!I!QQLY((ERTTGKLFFAZvsjsshpai+8bnjdZvvvkAkAAknnnFHHHFBHHFHFnjZvZjjZvZjjnjFFHJHHHHHHHHLq$",
"VMMFVTIL~V~KII~IE(`!IIYYYYIIIWRILJTW!!IIHHJJFnZvvjsaaaaaO;tMGDSnZZZZZjZAAAAAHJFFHGFGHHAAvvjjjjZAjjbHFAFJHHHBHFHBPa-",
"VKKHS~TVLIKI~IYUY!(!YEYLIIIIRWILWLJWIRWILLHJFZZvjsssaaii+;rmSzvvjZAZZZZAAAAFGJGFGFHJJHAnZZvvZZZAjjjFFAFJHBBHHBHFJe-",
"HULKLLILIIIKIII~IY!EEYIKJPJIRLIJRJHHJRRILJLJZZvZjjsatiaa%<tnSDvnjZjZZZZZAAAFGHGFFFFJHHAAZvkvZZAAnjjFAAFTFHFHHFHFHg-",
"BKKKGLTVKII~IYIYYEEYYEYKJHJJILJHLJHHHHIIIILFAnvvsssaaaii*6cmSzzmjZAZjZZZAAAAHJFFJFFGJFAnvZZvZZkAnnjnFkFLFHHnFFBHHg-",
"mVLHJLLLKIIIYIYY!!EIIYRPJJJJJJHHHHHHJJHJLIJHAvvvvsssaiia*2xvlllnvZZZAjkAAnAAJHHFFFGGHFDnZZZZnjAjnjjFFnFLFHHFHHFHFe=",
"mMKFJL~KIIIIIYYY!!EIIIYPPJGAHHHHFHHHHHFFJIIJFnvlvvjsssas$0cmlzlcjvvZjAjFAnAAFHHAFFFFGFFkZZZZknjjFnjFFFFJnFFFFFHnHe=",
"mVILJLLLIIIIIIYIQ!!IHIPPLJHFFFFFAFGHHAAFFJJJHAZvvvlsssss*qmFvzSnknjnAjFjnAAAFHFAFFFFHFAZHADnAjAjjnFFAAFJHFFGFFFFHe-",
"MKYILLLL~KIIYIY~I!(YKHHNRJGFAFFGAFGFAAAHnFJJGASSvvvjcsss#7mmllnljjAAkjjjvnnAFHFDFFFJHAAZJHDAAkAFnjnFFFFHFFFFFFFFJe,",
"t8>:::-=;28,;==>-12ew=+=++#..*##==**@OO+$O+<65;=;;>;$$$;o0r::*+*=@@*==-==*#++Oo+-*2=3>;$=-,--2-+====+====+===--===-",
"cr222286rr02,80egwggg2==7-;:**#69555,,56=*;7q728we000400$tf20650fgeq8---=*$#++++::q2w8r088q88e925853=---====--888wg",
"Mlqqqqggvcaewgjnbjhnhg0wnrt6<56c9868678q<6qieqqlbcccccccwMmallvnjnnjgqqwqq65<55579jer0cmghjhhjnggjgggege9999eggghjj",
"McgahsjjnnMnnnHHHMBHBbnnnHF5:cFF!IIREEEE()`])~)|((YYQYYLFULMmKHFhhnnjjhjvlvcslhsigAhl<cMhnnjjHHnnFFnhnnnHFBnnBFBjjn",
"nvcnnkjkjFHHJLJFHMBMBHHKHIV<;mIYYIYI!(EI((E(!YY(`((`]((II~LUHUJSAAAAnAjhvvvljjjssllll>xVnnnjjnFFnFFnHHJHWJLLLLFFAAF",
"vjjAFkknjnFFFPJJHBHHHHBKIKm2>mIE((((``(Y((QEQ~YYIIYY^YYPILLIHKISHAjjjnhasaiaiiiielull;BCjnAjnnjkbHBFHJHHnnHHHHFnAAA",
"jjnAAkjkMFAkFJLGHHHBHBFMLKH32BIYYYYY(``Y_~YYE!YYYI(Y~~((UVLISKYSAjjjjjjjiaipiiayyaylc$N~kAFkAjFFnnFnFHJnnnnFHHnnAZj",
"nhjknjjknjFFJLJAnBHHHHFMmYI<<Y(MIYYI(``(YYYYYYYYIUYYKIY(~LYImVTFADAjjajkiiapapyailulloxNjjAFAAkFnBnFFWLFLHHFBHFnFFj",
"jnjAjkjjnnFFHHFFFHBFBBFBnWH55BWIYIIY~((YIIEYIII~IKIKIIJI!!TFJWHAAnjjjjggiyiyiyyi9gpiy;LUnlvZSvZZnAFFFJJFFFHHHGFAAAk",
"nkAnAjnjknnFHJHAHHHHHHHHAJH5=nPYYYIYE(!!YYIIIIIILLLLKIPPR!RGJJWFAnnjjgppiiiiiiii9iyiy:KVZvZASZZAAFFAFJJGGFFGJGFAAAA",
"nFkkvZAjnnAFHJGGHFHFHFFHAWJ,;cHYYIIYE!EY^YYLIYLKKLLLPIJJJWWLJJJFFnkjjjjpiiiiiiyi9iypq*mmvvvZZZZZnAFAFJJAFGFGJFFAkjj",
"knknjkAAnknAGJGFFHFBFHFHHJF5>MYYYIIY~(EYEYLLLJUKKKGKHJJJFJRWJJHAFnbgjjjpipiiiiiypgijq+axZvlZAZjZAAAAFJJFFFFFHFFAknA",
"ZZZjvjZAnnkFGHHGHFHFHFHFGJF60Y(IYIIYE^YYYYIUHHHVHHHJHHHHFHHJJTJnMnvvjjjspiiiyiyygjpgyOetZjvZZjZZnAAAFJJFFGFFGGAnDAA",
"vvvkZZZZAnnFFFGHHnFHFFFFHKFqc`_IYIYE~~YIKIYIHMGVFHFFFHGFBHFFLWWnFnvvjZjsgpiiiyiiiyyjy+fxvvjAZZjZnAAAAJFAFFFFGFFAAAA",
"vvZZAZZZFFAAFGFFFFFFFFFFFKFrl](KYIIY!!YIKKKKKHVFFFGFFFAGnHHnGLLJAnvvvvksjpgppaiigyyjy@hbZsjZZvkZAAAAFJGAFFFFFFFAAAD",
"jZZZAAZZFFAnFFFFFFFFFFFFFLKrx/~~IIIY!!YLKKKKUJFmFFFAFFFAnFHnFHLLHnvvZdZvjjjjgphpgppjy+hmvjjZZvvZjAAFAHHFFFFFFFFkJJH",
"JAnnAFFDjnHHLHHFFFFFAAAFmFL7t/PIYYPYY(YIWHFBFHHkFFFAAAAkFAFFAFFFJJDZjjjjjjjjsssaaqqlqor4vsvZZvZZnAAnAHFAAAFFHHAjJFA",
"HHHnFkAAFFHHHHFFFFFFHFAFMKG6f'YYYPYY(YIULKHHHHFFkAAAFFHJFAAAFGFGFFDZAjAknjjjjjjsalllqorrjssZvvsZnnAAAHGAFAAFFHAnDAA",
"AHHJHFkFnFFFHFHHFGGFHHHFKKJ6x'~IYIIYQ(YLLKHHHFHFnnjFFGJLHFnnFHHHAAnnjnnnAjAjjjjjllllq.tljssvZsvZnAAAAJFFFAAAHFAnAjj",
"nHPIJHHFFFBFFHHHHFGHHHHJBLJ6r/U~YIYQ(YYYKHHnFFHjFAnjjAFFHHnnGHHFAAAnFjAFZAAjZZjjllllqotxjsvvZvsZnnAAHHJDFAADJFAjFAn",
"AHHPLLHFHHHFHHHHHHHHHHHJKLR<3CC~IIII!!WIKHHnFnjjFAnjnnAFPJHFHHFFHFAFAnnnAAFkAkZjnvale+txvssZZvZZjAAAAHFFFAAFJFDnHAn",
"HAFHPILHHHHHHHHLFHHHJJJPBIR<1CV~IIIYQ!RIWJHHHFHFFAAnAAFFPJJJJHHHJHHHFFnnDAAkAAkZnlsZa#xxvjvZZvvZnAAAAHGAAAAFFHAjFFA",
"AFFHJPWWJKJLJJJHHHHHJPKIMKT<1CV~QY!!!!!LWJWFHFFFjAnAAFFHHLWILJLRHHHHHFMFAGDDDAAAZZvDa$lmvssZZvjZnAAAGHHFFAAFFFAvFAA",
"nAFBHHIQLLLLWHLLKKJIPIIIBJH<1CK~QRQ!!!!QLWHFFFAnnnjAAAAAAHIQWJWQHJHJHHHFFFFFAAAAZFSGl#cmsssvZvsZkAAFAHJAFAAFHHAjFAA",
"nFHHAHI!!YYYYEYYQQI!~LLLVGT72C~~JRW!!!!WGJFFHFkAjjjZjnFGFnFLQRWH)LGLLLFJHHHHFFFFAFSSl$xxclvlvZvZnnAFJJFAFDAAHJFZFSS",
"nnFHHHJR(QYYYQYQWILQTUGGVVT72CBHWLRWWJRWRFFkjFAjjjZjjjkAAFFHJWRRT~YGLIRAHHHHHHFFGFASt$xmlnvvvvvZvvvvAFFDFAAAFFAkFSv",
"MFFHJIIIYYYYYYQI!YI!~ILLVG~73CVKWRJHGJJWWJnnFFFnZjZjjjAAFAnFHRQ!K~~LLIRPJJHHHJJJLFASl$lmvvSvZZZZFAAAFFJJJHHHJHAnHFF",
"HHHJJIRIQYIIYYII!IY!~TTLHJTq4~~TRWJFkJJJJHFFFjjkvvjjjjjnFAnFHLRW~LR)ELJ!ILLLJJLJFFZSt$xmnvSvZZSZFFFFJLLLJJHJPHHHLLH",
"JHFnFKKLYYPYIIIIIIPYEIGKKHT64QUIJJHHFHHJFHJFnjjjZZjjjjAknFFFHHKW(II`)!LWWJLIPPLLAFZFl*mmvZvZZZZZvnFFFFFAAnAHFHHAAFF",
"HHHHFHLIYYLLIIIPIPKYILJKKFD<>CKFFFHHJHHHnAJJnnjkjjjZnkAjkFHHHBHHI((Y!!!JRWWWIIPPFFFGv>NVsssvvvlsvvnFFAnnnnnAFnAHFAn",
"HJPJJJKIYYKUPIILYPIIEILLVnS;1CmnFAFFFFFFnnnnnnkkjjjjkFnjjnFHFHHJL~(YQ!!WRRR!IUKKGJAFv>PCsssZvvvsvnAMnvvnnnnAnnAAFAn",
"jFJPKFAFIUKLIPIHKHKILLGGVnF23~KFFFAAAAAFWkgnFFngsasjjFkjjnFnFHPWIIY(!R!|WW!WYPKFGFZSl;U~vvvZZZvvvvnvsshvjnjjjjjnFZn",
"AAAJILLJLLIILILWIKKKLUVFMFG*6^LmFFnAFFFGAAAAjjjhvjssjvZDAAAFHHHHKUIY(~(E`_YYLLKIKFvVl;U^ssvsvvvnvssjjjjsshjlsvlvvvv",
"FAAHLTIJPPJPLJHWKKKKLLJVVHG:3^ISFFFAAFFFAAADAkAnvZjjvZAAjjjnFFFHIIU~^(_(_(^YULIKHFnSl;mVsssjjvlvvjslsjssssssshsslvl",
"kAAFJJLLHHHHHHKKIKGLIIILFJG<1~PVFnFnFFHFAAvAAnjnjjjjjZADjjjjnFFnKKKIY(~(^((QYYLKMMmGx$lmlssjvvvsnlvlvvvvvssvvvlvsvv",
"AknAHJIIPJPJKKKHKKKUIILLVFG:>~KSFHHHFHHHAAnnAAnjvZZZvvvvjkMAFHHHKKKPYY(E_(((YYLKMASHt#xxvssvZZvavhslsjsssjvssvvvvsv",
"jFnAFHLRKIHPLKIL~KLIIIUVKHD;>CCUHHHHHJPHHFAHHJFFDGHAAAAAnAAFFHHHULYY((((``(EIIKHKFFFc$mmvlsvZZvsaiietatiiaiaaaaajsj",
"kjknFFHLLPIPKIKLVUKTYIKFKGT<>NVIKHKHJJJIFHGFHHFFAGJHDjkZjknAFHFHLIYYQ(((((^QIIKHKFAKl=VVjssvZZvslaaappaeaiiaaiaasjj",
"jjnAnFHLHHHJJHVKLVULILKKBHL6>~VLHHHHKKPHnFFFnnnnkAADZjjAjjnkFFHHKKPI~YYIY^^Y~ILKKHALv=V~asssjvvsllallllaaaalsssssjj",
"jFnnFFFHBHBBFBFFVHHKKIILmMT01VMSHBHBHHHHFHHHnnnAZAADjjAFjjnnFFHJKKYY(^YLUUY^~ILFKHFFb;VUiisasssZaayeyiiiaiaeaiassss",
"jjAAAHHAAFHAAAJRHHHJLLLHIAJ,6cIMGHHFAHHIAAJJJFFFFFHGAAAHZAAHJJPJYYQY!WRW!!!!!!WJLLKLF0~~talassZvpyyigyyp9yyyiigpaal",
"jkkAAAHHFAAFHHHJHHHPLLJHPGL-=rHMFHFHHHHIHHFJJFADFHFFAZAFZZDAHJJLYUIYWWWRWRLW!!!WLIFKn<VValcljsvZaiyppi9iy9yyyipglpa",
"jkkAAAFFHAAAJJHFHHHHLJJJLGL-#8VHFFHFAHJLAAHJHGAAFAAFAjnHjAAAFJLJPPPPWHHWLWLWJW!!LLFGl;mNislvjjjZiyyagpi9i9yyyipitlt",
"sjjnnAHHDnAHJJHFHHHHLLJHLLL:#6MKKMKFHHHJHAFJHHAAAAFFnjvAAjnAFJLIJJPJKLHHHJLHJGW!LLFHc;K~ssvvZjvjgiyaiiyi9iyyiiiiplp",
"sjzvZAFFAAHHFAFHHHFHJPHHLGL;*tKFFFFHFFHIHAFJJFAAAAFAnjnAZZAAHJPLJHHHHHHHHJJFFJJWIKFHc;V~cvvZvjZZji9iyyppyyyy9yiiaap",
"sssZnAMFkFHJDFAJFHHHJHHHHSS;*lVnMFHMMHHLAAFJJAAFFAAHnjvFkAAFJJJHHHHHHHHHFFHWJFFkIKFGn*N~ZvAZvZjvjiyyyiygyyy9yiiypal",
"slZsvAFAAAAAAAFGHHHJPJHFGSF;=tKVFBFFAFHJFAAJGFAAAAAHAjvAvZAFHHHHFFHFHFHFFFWkHHFFKFGLl$mVDFSZjvjjpyyypiypyyyy9yyytpi",
"sssZvnnFHHAAFGHAFFHJJJHHHFL;*rKHFFHFFBHHFAAGHAAAHAAAnnAAjAAHHHAAFFFFFFFFFFkAFHHFnMF~m*xBFFDZjjvZiyijji99yy9yyyyyiia",
"hjnAAAHJAAFMFFFHBHHPPHHFHSn<=bKMFFFBFFHHGAFJHFAFAAHAAvnAjAAAAZnDAADAADAZkFFAAAkFnnFFn<xVFnnZZjsZjiygjkii9yiiiyiivss",
"hhjjAFHHHJHHHHHHMHHHIHPHSGH6*tMHHHHHFHHJFAFHGFDFAHHAnvAAADADZZZAZZAZAZZZknFAAkkAvvSSc;xVJAnnZjlzjiypjgii9yyyyiggias",
"jhjjDFFnFFFHHHHFFHFJHHJJVSH6#eMMFHHFBFHJFAFHGFAFAAFFnvnADnZvZZZvjZZZvZZvknkAkFFFSnFvl$rmFnnZZsZZpiigpyipyuyyyypkpsa",
"jhhnAAnjnnjnjnnnMFFFHHPJGKF<#tMKnBFFnnHHFAAHFFAFDFFFnjnnAjjjvZZjjjjjjjjvknnnFkkknSSnl*fNHAZZZsszpyipy9pgggiy9ugkjvs",
"gjnAAnnAnAAAFAFFAAMAFFJJTGS;+tHFnFnFFFHHAAFHGAAFnAHAnhjnFjjjjvjjjjsasjjvjvAZjjnkssvvl>cUHnnnZslZiiiiy9ypkgppyyggjjv",
"jAHAAjjAnAAAnFFjSnMnnFGVLKv:$hKMHHFHFHHIAAAJFFkFAFFFnnjnkjjjjjjsssasajjjZZkAkjjjcavvl*xVHnvnZvvZgppgi9ygkjgdgppdsjv",
"AAAAnjnjjAAjAjjAnnvnnnSFHGG<*cHHHHHHHHLIFAAFFAFAAAFFnvvvjjjjjaaasaaassjjjjAjjjjnnnncr$wmHAnAZslZpipgpyyiypjggpgplvZ",
"AnnjnnnjAjjnkAkAvnvvnnvzmGLr;cBVFFHHHJJIAAAFHAnFAAFHnjjjajjjaiasssaaajjjjjjAjjnjsalla*fBHAnvvllSgpijgp9yyijkkjkgssZ",
"JnKIFFKHAHGGJSSGGGGJTLGSSTn;<mKYWIIIQQYILGLTJGGLGGTTSSSHvlZjvDgpaaapjvjjkAAkAAZDAhSSx2~'GLSLSlmnjjjhpjjygjgkADAjvZZ",
"e8qtq8087q60q06q62<5678<<66#;e009wgfghaeqqyty0qq00rqr0qrq6q,6e888858895,5,777997e6qq2>NNqq0rr8rle99e8eg9896eheg8778",
":$==#+#+$*$*;##*$+..oo++ .oo<7#O==32<21>:;:::*;:#*;::;<<6><#=2,2,,,,,==@==@=-5-=0<;;>>N4$;*<<<rr8622-8w216-0e80,-::"
};
